<svg width="139" height="40" viewBox="0 0 139 40" fill="none" xmlns="http://www.w3.org/2000/svg">
<path d="M6.48094 15.9833H11.512V20H1.26184V3.07223H6.48094V15.9833ZM15.4348 5.43926C14.5258 5.43926 13.7969 5.19217 13.2484 4.69807C12.6999 4.20394 12.4256 3.58229 12.4256 2.83313C12.4256 2.06804 12.6999 1.43842 13.2484 0.944297C13.7969 0.434232 14.5258 0.179199 15.4348 0.179199C16.3282 0.179199 17.0491 0.434232 17.5977 0.944297C18.1462 1.43842 18.4205 2.06804 18.4205 2.83313C18.4205 3.58229 18.1462 4.20394 17.5977 4.69807C17.0491 5.19217 16.3282 5.43926 15.4348 5.43926ZM18.0208 6.51517V20H12.8017V6.51517H18.0208ZM24.7978 6.3478C25.6599 6.3478 26.4043 6.53112 27.0313 6.89771C27.6581 7.24839 28.1362 7.73453 28.4653 8.35621V6.51517H33.6609V19.7609C33.6609 21.0202 33.4337 22.1678 32.9792 23.2039C32.5247 24.2399 31.788 25.0688 30.7692 25.6904C29.7662 26.3121 28.4732 26.6229 26.8902 26.6229C24.7586 26.6229 23.066 26.1128 21.8122 25.0927C20.574 24.0885 19.8687 22.7177 19.6963 20.9803H24.8213C24.9624 21.6817 25.5266 22.0323 26.5141 22.0323C27.1253 22.0323 27.6033 21.8729 27.9481 21.5541C28.2929 21.2353 28.4653 20.6376 28.4653 19.7609V18.159C28.1362 18.7807 27.6581 19.2748 27.0313 19.6414C26.4043 19.9921 25.6599 20.1674 24.7978 20.1674C23.7634 20.1674 22.8309 19.8964 22.0002 19.3545C21.1695 18.7966 20.5113 17.9996 20.0254 16.9635C19.5552 15.9115 19.3201 14.6762 19.3201 13.2576C19.3201 11.839 19.5552 10.6116 20.0254 9.57557C20.5113 8.52357 21.1695 7.72657 22.0002 7.18462C22.8309 6.62676 23.7634 6.3478 24.7978 6.3478ZM28.4653 13.2576C28.4653 12.5403 28.2851 11.9824 27.9246 11.5839C27.5641 11.1854 27.1018 10.9862 26.5376 10.9862C25.9733 10.9862 25.511 11.1854 25.1505 11.5839C24.79 11.9824 24.6098 12.5403 24.6098 13.2576C24.6098 13.9749 24.79 14.5328 25.1505 14.9313C25.511 15.3298 25.9733 15.529 26.5376 15.529C27.1018 15.529 27.5641 15.3298 27.9246 14.9313C28.2851 14.5328 28.4653 13.9749 28.4653 13.2576ZM44.9381 6.41953C46.4586 6.41953 47.6417 6.93757 48.4882 7.97362C49.3499 9.00971 49.7812 10.4124 49.7812 12.1817V20H44.5855V12.8511C44.5855 12.2136 44.4132 11.7115 44.0683 11.3448C43.7392 10.9623 43.2925 10.771 42.7283 10.771C42.1484 10.771 41.6938 10.9623 41.3647 11.3448C41.0356 11.7115 40.871 12.2136 40.871 12.8511V20H35.6519V2.30713H40.871V8.57139C41.2785 7.9338 41.8193 7.41576 42.4932 7.01726C43.1828 6.61876 43.9978 6.41953 44.9381 6.41953ZM59.9434 15.4812V20H57.9688C54.3325 20 52.5143 18.159 52.5143 14.477V10.9384H50.8687V6.51517H52.5143V3.2635H57.7337V6.51517H59.8965V10.9384H57.7337V14.5726C57.7337 14.8914 57.8043 15.1225 57.9451 15.266C58.102 15.4094 58.3527 15.4812 58.6973 15.4812H59.9434Z" fill="#566EC1"/>
<path d="M68.0908 20.1674C66.1001 20.1674 64.4544 19.6972 63.1538 18.7568C61.8684 17.8004 61.1712 16.4057 61.0612 14.5726H66.6096C66.6878 15.5449 67.1111 16.0311 67.8789 16.0311C68.1614 16.0311 68.3965 15.9673 68.5842 15.8398C68.788 15.6963 68.8899 15.4812 68.8899 15.1943C68.8899 14.7958 68.6785 14.477 68.2552 14.2379C67.832 13.9828 67.1736 13.6959 66.2806 13.3772C65.2147 12.9946 64.3293 12.62 63.624 12.2534C62.9344 11.8868 62.3386 11.3528 61.8371 10.6515C61.3356 9.95017 61.0925 9.04957 61.1081 7.94971C61.1081 6.84989 61.3826 5.91744 61.931 5.15235C62.4955 4.3713 63.2557 3.78154 64.2117 3.38305C65.1834 2.98456 66.2726 2.78532 67.4794 2.78532C69.517 2.78532 71.1313 3.2635 72.3225 4.21987C73.5292 5.17626 74.1639 6.52312 74.2264 8.26053H68.6079C68.5922 7.78235 68.4747 7.43966 68.2552 7.23244C68.0358 7.02526 67.7694 6.92162 67.4561 6.92162C67.2367 6.92162 67.0561 7.00135 66.9153 7.16071C66.7741 7.30416 66.7035 7.51139 66.7035 7.78235C66.7035 8.16489 66.9073 8.48371 67.3149 8.73876C67.7381 8.97785 68.4041 9.27271 69.3132 9.62339C70.363 10.0219 71.2252 10.4044 71.8992 10.771C72.5888 11.1376 73.1846 11.6477 73.6861 12.3012C74.1876 12.9548 74.4383 13.7756 74.4383 14.7639C74.4383 15.7999 74.1876 16.7324 73.6861 17.5613C73.1846 18.3742 72.4556 19.0118 71.4996 19.474C70.5436 19.9363 69.407 20.1674 68.0908 20.1674ZM84.1714 15.4812V20H82.1964C78.5605 20 76.7423 18.159 76.7423 14.477V10.9384H75.0966V6.51516H76.7423V3.2635H81.9613V6.51516H84.124V10.9384H81.9613V14.5726C81.9613 14.8914 82.0319 15.1225 82.1727 15.266C82.3296 15.4094 82.5803 15.4812 82.9253 15.4812H84.1714ZM99.8413 6.51516V20H94.6223V17.9438C94.2147 18.5814 93.6663 19.0994 92.9767 19.4979C92.3027 19.8964 91.4955 20.0957 90.5551 20.0957C89.0351 20.0957 87.8435 19.5776 86.9818 18.5416C86.1353 17.5055 85.712 16.1028 85.712 14.3335V6.51516H90.9078V13.6641C90.9078 14.3016 91.0723 14.8117 91.4017 15.1943C91.7463 15.5608 92.2008 15.7442 92.7648 15.7442C93.345 15.7442 93.7995 15.5608 94.1285 15.1943C94.4579 14.8117 94.6223 14.3016 94.6223 13.6641V6.51516H99.8413ZM101.141 13.2576C101.141 11.839 101.376 10.6116 101.846 9.57557C102.332 8.52357 102.99 7.72657 103.821 7.18462C104.651 6.62676 105.584 6.3478 106.618 6.3478C107.481 6.3478 108.217 6.53112 108.829 6.89771C109.455 7.24839 109.933 7.73453 110.262 8.35621V2.30713H115.482V20H110.262V18.159C109.933 18.7807 109.455 19.2748 108.829 19.6414C108.217 19.9921 107.481 20.1674 106.618 20.1674C105.584 20.1674 104.651 19.8964 103.821 19.3545C102.99 18.7966 102.332 17.9996 101.846 16.9635C101.376 15.9115 101.141 14.6762 101.141 13.2576ZM110.286 13.2576C110.286 12.5403 110.106 11.9824 109.745 11.5839C109.384 11.1854 108.922 10.9862 108.358 10.9862C107.794 10.9862 107.332 11.1854 106.971 11.5839C106.611 11.9824 106.43 12.5403 106.43 13.2576C106.43 13.9749 106.611 14.5328 106.971 14.9313C107.332 15.3298 107.794 15.529 108.358 15.529C108.922 15.529 109.384 15.3298 109.745 14.9313C110.106 14.5328 110.286 13.9749 110.286 13.2576ZM120.105 5.43926C119.196 5.43926 118.468 5.19217 117.919 4.69807C117.371 4.20394 117.097 3.58229 117.097 2.83313C117.097 2.06804 117.371 1.43842 117.919 0.944297C118.468 0.434232 119.196 0.179199 120.105 0.179199C120.999 0.179199 121.72 0.434232 122.269 0.944297C122.817 1.43842 123.091 2.06804 123.091 2.83313C123.091 3.58229 122.817 4.20394 122.269 4.69807C121.72 5.19217 120.999 5.43926 120.105 5.43926ZM122.691 6.51516V20H117.472V6.51516H122.691ZM130.997 20.1674C129.665 20.1674 128.465 19.8884 127.4 19.3306C126.334 18.7727 125.496 17.9757 124.884 16.9396C124.289 15.8876 123.991 14.6603 123.991 13.2576C123.991 11.8549 124.289 10.6355 124.884 9.59948C125.496 8.54748 126.334 7.74253 127.4 7.18462C128.465 6.62676 129.665 6.3478 130.997 6.3478C132.329 6.3478 133.528 6.62676 134.594 7.18462C135.66 7.74253 136.49 8.54748 137.086 9.59948C137.697 10.6355 138.002 11.8549 138.002 13.2576C138.002 14.6603 137.697 15.8876 137.086 16.9396C136.49 17.9757 135.66 18.7727 134.594 19.3306C133.528 19.8884 132.329 20.1674 130.997 20.1674ZM130.997 15.5768C131.482 15.5768 131.89 15.3855 132.219 15.003C132.548 14.6045 132.713 14.0227 132.713 13.2576C132.713 12.4925 132.548 11.9187 132.219 11.5361C131.89 11.1376 131.482 10.9384 130.997 10.9384C130.511 10.9384 130.104 11.1376 129.774 11.5361C129.445 11.9187 129.281 12.4925 129.281 13.2576C129.281 14.0227 129.437 14.6045 129.751 15.003C130.08 15.3855 130.495 15.5768 130.997 15.5768Z" fill="#FBFBFB"/>
<path d="M137.649 23.8247H37.1067C36.6074 23.8247 36.2026 24.2364 36.2026 24.7442C36.2026 25.2521 36.6074 25.6638 37.1067 25.6638H137.649C138.148 25.6638 138.553 25.2521 138.553 24.7442C138.553 24.2364 138.148 23.8247 137.649 23.8247Z" fill="#566EC1"/>
<path d="M74.1317 30.4779L72.1951 37.2725H71.2176L69.6649 31.8037L68.0546 37.2725L67.086 37.2823L65.2169 30.4779H66.147L67.604 36.2392L69.2144 30.4779H70.1919L71.7258 36.2197L73.1922 30.4779H74.1317ZM80.224 31.1993V33.4706H82.6585V34.2018H80.224V36.5414H82.9463V37.2725H79.3516V30.4681H82.9463V31.1993H80.224ZM91.8768 33.7729C92.1199 33.8119 92.3402 33.9126 92.5382 34.075C92.7429 34.2375 92.9025 34.439 93.0174 34.6795C93.1389 34.9199 93.1997 35.1766 93.1997 35.4496C93.1997 35.794 93.1135 36.106 92.9409 36.3855C92.7684 36.6584 92.5159 36.8761 92.1838 37.0386C91.8575 37.1945 91.4709 37.2725 91.024 37.2725H88.5314V30.4779H90.9279C91.3815 30.4779 91.7681 30.5559 92.0877 30.7119C92.4073 30.8613 92.6468 31.066 92.8069 31.326C92.9664 31.586 93.0464 31.8784 93.0464 32.2034C93.0464 32.6063 92.9378 32.941 92.7206 33.2075C92.5096 33.4674 92.2285 33.6559 91.8768 33.7729ZM89.4038 33.4122H90.8702C91.2792 33.4122 91.5956 33.3147 91.8196 33.1197C92.043 32.9247 92.1548 32.655 92.1548 32.3106C92.1548 31.9661 92.043 31.6965 91.8196 31.5015C91.5956 31.3065 91.2729 31.209 90.851 31.209H89.4038V33.4122ZM90.9471 36.5414C91.3815 36.5414 91.7203 36.4374 91.963 36.2295C92.2062 36.0215 92.3273 35.7323 92.3273 35.3619C92.3273 34.9849 92.1995 34.6892 91.9438 34.4747C91.6881 34.2538 91.3467 34.1433 90.9185 34.1433H89.4038V36.5414H90.9471ZM100.794 37.3408C100.353 37.3408 99.9571 37.2628 99.6053 37.1068C99.2603 36.9444 98.9886 36.7234 98.7906 36.4439C98.5926 36.158 98.4902 35.8298 98.484 35.4593H99.4136C99.4458 35.7778 99.5736 36.0475 99.7971 36.2685C100.027 36.4829 100.359 36.5901 100.794 36.5901C101.209 36.5901 101.535 36.4862 101.772 36.2782C102.014 36.0637 102.136 35.7908 102.136 35.4593C102.136 35.1994 102.066 34.9882 101.925 34.8257C101.785 34.6632 101.609 34.5397 101.398 34.4552C101.187 34.3708 100.903 34.2798 100.545 34.1823C100.104 34.0653 99.7493 33.9483 99.4806 33.8314C99.2187 33.7144 98.9921 33.5324 98.8004 33.2855C98.6149 33.032 98.5224 32.694 98.5224 32.2716C98.5224 31.9012 98.6149 31.573 98.8004 31.287C98.9854 31.001 99.2442 30.7801 99.5767 30.6241C99.9155 30.4681 100.302 30.3901 100.737 30.3901C101.363 30.3901 101.874 30.5494 102.27 30.8678C102.673 31.1863 102.9 31.6087 102.951 32.1351H101.992C101.96 31.8752 101.826 31.6477 101.59 31.4527C101.353 31.2513 101.04 31.1505 100.65 31.1505C100.286 31.1505 99.9888 31.248 99.7586 31.443C99.5289 31.6315 99.4136 31.8979 99.4136 32.2424C99.4136 32.4893 99.4806 32.6908 99.6152 32.8468C99.7555 33.0027 99.9249 33.123 100.123 33.2075C100.328 33.2855 100.612 33.3764 100.976 33.4804C101.417 33.6039 101.772 33.7274 102.04 33.8509C102.308 33.9678 102.539 34.153 102.73 34.4065C102.922 34.6535 103.018 34.9914 103.018 35.4204C103.018 35.7518 102.932 36.0637 102.759 36.3562C102.586 36.6486 102.331 36.8859 101.992 37.0678C101.654 37.2498 101.254 37.3408 100.794 37.3408ZM109.439 30.4779V37.2725H108.567V30.4779H109.439ZM119.304 30.4779V31.1993H117.482V37.2725H116.61V31.1993H114.779V30.4779H119.304ZM125.515 31.1993V33.4706H127.95V34.2018H125.515V36.5414H128.238V37.2725H124.643V30.4681H128.238V31.1993H125.515ZM135.941 37.3408C135.5 37.3408 135.104 37.2628 134.753 37.1068C134.408 36.9444 134.136 36.7234 133.938 36.4439C133.739 36.158 133.638 35.8298 133.631 35.4593H134.561C134.593 35.7778 134.72 36.0475 134.944 36.2685C135.174 36.4829 135.507 36.5901 135.941 36.5901C136.356 36.5901 136.683 36.4862 136.919 36.2782C137.162 36.0637 137.283 35.7908 137.283 35.4593C137.283 35.1994 137.213 34.9882 137.072 34.8257C136.932 34.6632 136.756 34.5397 136.545 34.4552C136.334 34.3708 136.05 34.2798 135.692 34.1823C135.251 34.0653 134.896 33.9483 134.628 33.8314C134.366 33.7144 134.139 33.5324 133.947 33.2855C133.762 33.032 133.669 32.694 133.669 32.2716C133.669 31.9012 133.762 31.573 133.947 31.287C134.133 31.001 134.392 30.7801 134.724 30.6241C135.062 30.4681 135.449 30.3901 135.883 30.3901C136.51 30.3901 137.021 30.5494 137.417 30.8678C137.82 31.1863 138.047 31.6087 138.098 32.1351H137.139C137.107 31.8752 136.973 31.6477 136.737 31.4527C136.5 31.2513 136.187 31.1505 135.797 31.1505C135.433 31.1505 135.136 31.248 134.906 31.443C134.676 31.6315 134.561 31.8979 134.561 32.2424C134.561 32.4893 134.628 32.6908 134.762 32.8468C134.903 33.0027 135.072 33.123 135.27 33.2075C135.474 33.2855 135.759 33.3764 136.123 33.4804C136.564 33.6039 136.919 33.7274 137.187 33.8509C137.456 33.9678 137.686 34.153 137.877 34.4065C138.069 34.6535 138.165 34.9914 138.165 35.4204C138.165 35.7518 138.079 36.0637 137.906 36.3562C137.733 36.6486 137.478 36.8859 137.139 37.0678C136.801 37.2498 136.401 37.3408 135.941 37.3408Z" fill="#FBFBFB"/>
</svg>
