<svg  viewBox="0 0 311 88" fill="none" xmlns="http://www.w3.org/2000/svg">
<path d="M14.5005 35.1631H25.7571V44H2.82323V6.75884H14.5005V35.1631ZM34.5339 11.9663C32.5001 11.9663 30.8694 11.4227 29.6421 10.3357C28.4148 9.2486 27.8011 7.88098 27.8011 6.23283C27.8011 4.54962 28.4148 3.16447 29.6421 2.07739C30.8694 0.955247 32.5001 0.394175 34.5339 0.394175C36.5328 0.394175 38.1458 0.955247 39.3732 2.07739C40.6005 3.16447 41.2142 4.54962 41.2142 6.23283C41.2142 7.88098 40.6005 9.2486 39.3732 10.3357C38.1458 11.4227 36.5328 11.9663 34.5339 11.9663ZM40.32 14.3333V44H28.6427V14.3333H40.32ZM55.4829 13.9651C57.4116 13.9651 59.0773 14.3684 60.48 15.1749C61.8826 15.9464 62.9522 17.0159 63.6886 18.3836V14.3333H75.3133V43.474C75.3133 46.2443 74.8048 48.7691 73.7879 51.0485C72.771 53.3278 71.1228 55.1513 68.8434 56.5189C66.5992 57.8865 63.7061 58.5703 60.1644 58.5703C55.3952 58.5703 51.608 57.4482 48.8027 55.2039C46.0324 52.9947 44.4543 49.9789 44.0686 46.1566H55.5355C55.8511 47.6996 57.1135 48.471 59.3228 48.471C60.6904 48.471 61.7599 48.1204 62.5314 47.419C63.3029 46.7177 63.6886 45.4027 63.6886 43.474V39.9498C62.9522 41.3174 61.8826 42.4045 60.48 43.211C59.0773 43.9825 57.4116 44.3682 55.4829 44.3682C53.1685 44.3682 51.082 43.7721 49.2235 42.5798C47.3649 41.3524 45.8921 39.5991 44.805 37.3197C43.753 35.0053 43.227 32.2876 43.227 29.1667C43.227 26.0457 43.753 23.3455 44.805 21.0662C45.8921 18.7518 47.3649 16.9984 49.2235 15.8061C51.082 14.5788 53.1685 13.9651 55.4829 13.9651ZM63.6886 29.1667C63.6886 27.5886 63.2853 26.3613 62.4788 25.4846C61.6722 24.6079 60.6378 24.1696 59.3754 24.1696C58.1129 24.1696 57.0785 24.6079 56.2719 25.4846C55.4654 26.3613 55.0621 27.5886 55.0621 29.1667C55.0621 30.7447 55.4654 31.972 56.2719 32.8487C57.0785 33.7254 58.1129 34.1637 59.3754 34.1637C60.6378 34.1637 61.6722 33.7254 62.4788 32.8487C63.2853 31.972 63.6886 30.7447 63.6886 29.1667ZM100.545 14.1229C103.947 14.1229 106.594 15.2626 108.488 17.5419C110.416 19.8213 111.381 22.9072 111.381 26.7996V44H99.7561V28.2724C99.7561 26.8698 99.3704 25.7652 98.5989 24.9586C97.8625 24.117 96.8631 23.6962 95.6007 23.6962C94.3032 23.6962 93.2862 24.117 92.5498 24.9586C91.8134 25.7652 91.4452 26.8698 91.4452 28.2724V44H79.7679V5.07562H91.4452V18.857C92.357 17.4543 93.5668 16.3146 95.0747 15.4379C96.6176 14.5612 98.4411 14.1229 100.545 14.1229ZM134.118 34.0585V44H129.7C121.564 44 117.496 39.9498 117.496 31.8493V24.0644H113.814V14.3333H117.496V7.17964H129.174V14.3333H134.013V24.0644H129.174V32.0597C129.174 32.761 129.332 33.2695 129.647 33.5851C129.998 33.9007 130.559 34.0585 131.33 34.0585H134.118Z" fill="#566EC1"/>
<path d="M152.347 44.3682C147.893 44.3682 144.211 43.3337 141.301 41.2648C138.425 39.1608 136.865 36.0924 136.619 32.0597H149.033C149.208 34.1988 150.155 35.2683 151.873 35.2683C152.505 35.2683 153.031 35.128 153.451 34.8475C153.907 34.5319 154.135 34.0585 154.135 33.4273C154.135 32.5506 153.662 31.8493 152.715 31.3233C151.768 30.7622 150.295 30.131 148.297 29.4297C145.912 28.588 143.931 27.764 142.353 26.9574C140.81 26.1509 139.477 24.9761 138.355 23.4332C137.233 21.8903 136.689 19.909 136.724 17.4893C136.724 15.0697 137.338 13.0183 138.565 11.3351C139.828 9.6168 141.529 8.31932 143.668 7.44264C145.842 6.56597 148.279 6.12763 150.979 6.12763C155.538 6.12763 159.15 7.17964 161.815 9.28366C164.515 11.3877 165.935 14.3508 166.075 18.1731H153.504C153.469 17.1211 153.206 16.3672 152.715 15.9113C152.224 15.4555 151.628 15.2275 150.927 15.2275C150.436 15.2275 150.032 15.4029 149.717 15.7535C149.401 16.0691 149.243 16.525 149.243 17.1211C149.243 17.9627 149.699 18.6641 150.611 19.2252C151.558 19.7512 153.048 20.3999 155.082 21.1714C157.431 22.0481 159.36 22.8897 160.868 23.6962C162.411 24.5027 163.744 25.6249 164.866 27.0626C165.988 28.5004 166.549 30.3063 166.549 32.4805C166.549 34.7598 165.988 36.8113 164.866 38.6347C163.744 40.4232 162.113 41.8258 159.974 42.8428C157.835 43.8597 155.292 44.3682 152.347 44.3682ZM188.326 34.0585V44H183.907C175.772 44 171.704 39.9498 171.704 31.8493V24.0644H168.022V14.3333H171.704V7.17964H183.381V14.3333H188.22V24.0644H183.381V32.0597C183.381 32.761 183.539 33.2695 183.854 33.5851C184.205 33.9007 184.766 34.0585 185.538 34.0585H188.326ZM223.386 14.3333V44H211.709V39.4764C210.797 40.879 209.57 42.0187 208.027 42.8954C206.519 43.7721 204.713 44.2104 202.609 44.2104C199.208 44.2104 196.542 43.0707 194.614 40.7914C192.72 38.512 191.773 35.4261 191.773 31.5337V14.3333H203.398V30.0609C203.398 31.4635 203.766 32.5857 204.503 33.4273C205.274 34.2338 206.291 34.6371 207.553 34.6371C208.851 34.6371 209.868 34.2338 210.604 33.4273C211.341 32.5857 211.709 31.4635 211.709 30.0609V14.3333H223.386ZM226.293 29.1667C226.293 26.0457 226.819 23.3455 227.871 21.0662C228.958 18.7518 230.431 16.9984 232.29 15.8061C234.148 14.5788 236.235 13.9651 238.549 13.9651C240.478 13.9651 242.126 14.3684 243.494 15.1749C244.896 15.9464 245.966 17.0159 246.702 18.3836V5.07562H258.38V44H246.702V39.9498C245.966 41.3174 244.896 42.4045 243.494 43.211C242.126 43.9825 240.478 44.3682 238.549 44.3682C236.235 44.3682 234.148 43.7721 232.29 42.5798C230.431 41.3524 228.958 39.5991 227.871 37.3197C226.819 35.0053 226.293 32.2876 226.293 29.1667ZM246.755 29.1667C246.755 27.5886 246.352 26.3613 245.545 25.4846C244.738 24.6079 243.704 24.1696 242.442 24.1696C241.179 24.1696 240.145 24.6079 239.338 25.4846C238.532 26.3613 238.128 27.5886 238.128 29.1667C238.128 30.7447 238.532 31.972 239.338 32.8487C240.145 33.7254 241.179 34.1637 242.442 34.1637C243.704 34.1637 244.738 33.7254 245.545 32.8487C246.352 31.972 246.755 30.7447 246.755 29.1667ZM268.725 11.9663C266.691 11.9663 265.061 11.4227 263.834 10.3357C262.606 9.2486 261.993 7.88098 261.993 6.23283C261.993 4.54962 262.606 3.16447 263.834 2.07739C265.061 0.955247 266.691 0.394175 268.725 0.394175C270.724 0.394175 272.337 0.955247 273.565 2.07739C274.792 3.16447 275.406 4.54962 275.406 6.23283C275.406 7.88098 274.792 9.2486 273.565 10.3357C272.337 11.4227 270.724 11.9663 268.725 11.9663ZM274.511 14.3333V44H262.834V14.3333H274.511ZM293.093 44.3682C290.113 44.3682 287.43 43.7545 285.046 42.5272C282.661 41.2998 280.785 39.5465 279.417 37.2671C278.085 34.9527 277.418 32.2526 277.418 29.1667C277.418 26.0808 278.085 23.3981 279.417 21.1188C280.785 18.8044 282.661 17.0335 285.046 15.8061C287.43 14.5788 290.113 13.9651 293.093 13.9651C296.074 13.9651 298.757 14.5788 301.141 15.8061C303.526 17.0335 305.384 18.8044 306.717 21.1188C308.085 23.3981 308.768 26.0808 308.768 29.1667C308.768 32.2526 308.085 34.9527 306.717 37.2671C305.384 39.5465 303.526 41.2998 301.141 42.5272C298.757 43.7545 296.074 44.3682 293.093 44.3682ZM293.093 34.2689C294.18 34.2689 295.092 33.8481 295.829 33.0065C296.565 32.1298 296.933 30.8499 296.933 29.1667C296.933 27.4834 296.565 26.221 295.829 25.3794C295.092 24.5027 294.18 24.0644 293.093 24.0644C292.006 24.0644 291.095 24.5027 290.358 25.3794C289.622 26.221 289.254 27.4834 289.254 29.1667C289.254 30.8499 289.604 32.1298 290.306 33.0065C291.042 33.8481 291.971 34.2689 293.093 34.2689Z" fill="#1F1F1F"/>
<rect x="81" y="52.4141" width="229" height="4.04594" rx="2.02297" fill="#566EC1"/>
<path d="M165.863 67.0518L161.53 82H159.343L155.869 69.9685L152.266 82L150.099 82.0214L145.917 67.0518H147.998L151.258 79.7267L154.861 67.0518H157.048L160.48 79.6838L163.761 67.0518H165.863ZM179.494 68.6388V73.6358H184.941V75.2443H179.494V80.3915H185.585V82H177.542V67.0303H185.585V68.6388H179.494ZM205.566 74.3007C206.11 74.3865 206.603 74.6081 207.046 74.9655C207.504 75.323 207.861 75.7662 208.118 76.2952C208.39 76.8242 208.526 77.389 208.526 77.9895C208.526 78.7473 208.333 79.4336 207.947 80.0484C207.561 80.6489 206.996 81.1278 206.253 81.4853C205.523 81.8284 204.658 82 203.658 82H198.081V67.0518H203.443C204.458 67.0518 205.323 67.2233 206.038 67.5665C206.753 67.8953 207.289 68.3457 207.647 68.9176C208.004 69.4895 208.183 70.1329 208.183 70.8478C208.183 71.7343 207.94 72.4706 207.454 73.0568C206.982 73.6287 206.353 74.0433 205.566 74.3007ZM200.033 73.5072H203.314C204.229 73.5072 204.937 73.2927 205.438 72.8638C205.938 72.4348 206.188 71.8415 206.188 71.0837C206.188 70.3259 205.938 69.7326 205.438 69.3036C204.937 68.8747 204.215 68.6603 203.271 68.6603H200.033V73.5072ZM203.486 80.3915C204.458 80.3915 205.216 80.1627 205.759 79.7052C206.303 79.2477 206.574 78.6114 206.574 77.7965C206.574 76.9672 206.288 76.3167 205.716 75.8448C205.144 75.3587 204.38 75.1157 203.422 75.1157H200.033V80.3915H203.486ZM225.518 82.1501C224.531 82.1501 223.645 81.9786 222.858 81.6354C222.086 81.278 221.478 80.7918 221.035 80.177C220.592 79.5479 220.363 78.8259 220.349 78.0109H222.429C222.501 78.7115 222.787 79.3049 223.287 79.791C223.802 80.2628 224.545 80.4987 225.518 80.4987C226.447 80.4987 227.176 80.27 227.705 79.8125C228.248 79.3406 228.52 78.7401 228.52 78.0109C228.52 77.439 228.363 76.9744 228.048 76.6169C227.734 76.2595 227.341 75.9878 226.869 75.8019C226.397 75.6161 225.761 75.4159 224.96 75.2014C223.973 74.9441 223.18 74.6867 222.579 74.4294C221.993 74.172 221.486 73.7717 221.057 73.2284C220.642 72.6708 220.435 71.9273 220.435 70.9979C220.435 70.183 220.642 69.4609 221.057 68.8318C221.471 68.2027 222.05 67.7166 222.794 67.3735C223.552 67.0303 224.417 66.8587 225.389 66.8587C226.79 66.8587 227.934 67.209 228.82 67.9096C229.721 68.6102 230.229 69.5396 230.343 70.6977H228.198C228.127 70.1258 227.827 69.6253 227.298 69.1964C226.769 68.7532 226.068 68.5316 225.196 68.5316C224.381 68.5316 223.716 68.746 223.201 69.175C222.687 69.5896 222.429 70.1758 222.429 70.9336C222.429 71.4769 222.579 71.9201 222.88 72.2633C223.194 72.6064 223.573 72.8709 224.016 73.0568C224.474 73.2284 225.11 73.4285 225.925 73.6573C226.912 73.929 227.705 74.2006 228.306 74.4723C228.906 74.7296 229.421 75.1371 229.85 75.6947C230.279 76.238 230.493 76.9815 230.493 77.9252C230.493 78.6543 230.3 79.3406 229.914 79.984C229.528 80.6274 228.956 81.1493 228.198 81.5496C227.441 81.95 226.547 82.1501 225.518 82.1501ZM244.86 67.0518V82H242.909V67.0518H244.86ZM266.931 67.0518V68.6388H262.856V82H260.905V68.6388H256.808V67.0518H266.931ZM280.829 68.6388V73.6358H286.276V75.2443H280.829V80.3915H286.92V82H278.877V67.0303H286.92V68.6388H280.829ZM304.156 82.1501C303.169 82.1501 302.283 81.9786 301.497 81.6354C300.725 81.278 300.117 80.7918 299.674 80.177C299.23 79.5479 299.002 78.8259 298.987 78.0109H301.068C301.139 78.7115 301.425 79.3049 301.926 79.791C302.44 80.2628 303.184 80.4987 304.156 80.4987C305.085 80.4987 305.815 80.27 306.344 79.8125C306.887 79.3406 307.159 78.7401 307.159 78.0109C307.159 77.439 307.001 76.9744 306.687 76.6169C306.372 76.2595 305.979 75.9878 305.507 75.8019C305.035 75.6161 304.399 75.4159 303.598 75.2014C302.612 74.9441 301.818 74.6867 301.218 74.4294C300.632 74.172 300.124 73.7717 299.695 73.2284C299.28 72.6708 299.073 71.9273 299.073 70.9979C299.073 70.183 299.28 69.4609 299.695 68.8318C300.11 68.2027 300.689 67.7166 301.432 67.3735C302.19 67.0303 303.055 66.8587 304.027 66.8587C305.428 66.8587 306.572 67.209 307.459 67.9096C308.36 68.6102 308.867 69.5396 308.981 70.6977H306.837C306.765 70.1258 306.465 69.6253 305.936 69.1964C305.407 68.7532 304.706 68.5316 303.834 68.5316C303.019 68.5316 302.354 68.746 301.84 69.175C301.325 69.5896 301.068 70.1758 301.068 70.9336C301.068 71.4769 301.218 71.9201 301.518 72.2633C301.833 72.6064 302.212 72.8709 302.655 73.0568C303.112 73.2284 303.749 73.4285 304.563 73.6573C305.55 73.929 306.344 74.2006 306.944 74.4723C307.545 74.7296 308.059 75.1371 308.488 75.6947C308.917 76.238 309.132 76.9815 309.132 77.9252C309.132 78.6543 308.939 79.3406 308.553 79.984C308.166 80.6274 307.595 81.1493 306.837 81.5496C306.079 81.95 305.185 82.1501 304.156 82.1501Z" fill="#1F1F1F"/>
</svg>
